/* XPM */
static char *_1078eb5a7944526bcb2b6b57d28bbb7RCWkUKZN5s0sEqPg[] = {
/* columns rows colors chars-per-pixel */
"16 16 64 1 ",
"  c None",
". c #0046B3",
"X c #0047B3",
"o c #0048B4",
"O c #0248B4",
"+ c #0349B4",
"@ c #0049B8",
"# c #004BBD",
"$ c #2460BE",
"% c #2561BE",
"& c #004DC2",
"* c #004FC6",
"= c #0F57C6",
"- c #0052CB",
"; c #0053CB",
": c #0051CC",
"> c #0052CC",
", c #0053CC",
"< c #0555CD",
"1 c #115ECF",
"2 c #2664C2",
"3 c #2B68C4",
"4 c #256BD4",
"5 c #276CD4",
"6 c #2A6ED4",
"7 c #3C78D3",
"8 c #4077CA",
"9 c #487BC8",
"0 c #4E83D4",
"q c #4C86DB",
"w c #5F8DD2",
"e c #5E90DB",
"r c #638ED1",
"t c #6993D2",
"y c #769FDE",
"u c #6395E0",
"i c #95B3DF",
"p c #91B3E6",
"a c #98B6E4",
"s c #A9C1E5",
"d c #A7C2EA",
"f c #BFD2EE",
"g c #BAD0F1",
"h c #BBD1F1",
"j c #D0DDF1",
"k c #D5E1F2",
"l c #D7E4F7",
"z c #DAE6F7",
"x c #DCE6F6",
"c c #E3ECF9",
"v c #E7EEF9",
"b c #ECF1F9",
"n c #EDF2FA",
"m c #EDF3FB",
"M c #EEF3FA",
"N c #EFF3FA",
"B c #EEF3FC",
"V c #EFF4FC",
"C c #F0F4FB",
"Z c #F1F5FC",
"A c #F2F6FC",
"S c #FAFCFE",
"D c #FCFDFE",
"F c white",
/* pixels */
"     ,,,,,,     ",
"   ,,,,,,,,,-   ",
"  ,,u<,,,,,-*&  ",
" ,,,ml1,,,-*&#@ ",
" ,,,BF5h6-*&#@X ",
",,,,BF5FSp=#@XXo",
",,,,BF4hFFvwXXXX",
",,,,VFce0xFmXXXX",
",,,,qzFFf2FmXXXX",
",,,,h7yZC$FmXXXX",
",,,-ZFa3$iFCXXXX",
" ,-*dFFmmFFsXXX ",
" -*&#8jFFk9XXXX ",
"  &#@XotroXXXX  ",
"   @XXXXXXXXX   ",
"     oXXXXX     "
};
