/* XPM */
static char *_3099b30e40b4eb7ae5f5d84bce39f5b770X7TYVSdB4Engi[] = {
/* columns rows colors chars-per-pixel */
"64 64 121 2 ",
"   c None",
".  c #0047B3",
"X  c #0048B6",
"o  c #0A4EB6",
"O  c #004BBC",
"+  c #094FB9",
"@  c #0C50B7",
"#  c #0C52BA",
"$  c #1657BA",
"%  c #1759BD",
"&  c #1A5ABB",
"*  c #004EC3",
"=  c #0050C7",
"-  c #0B56C6",
";  c #0052CC",
":  c #0857CE",
">  c #0B59CE",
",  c #1057C3",
"<  c #1459C2",
"1  c #145CCA",
"2  c #1861CF",
"3  c #1560D0",
"4  c #1B64D1",
"5  c #2565C6",
"6  c #2D67C0",
"7  c #2D69C4",
"8  c #2365C8",
"9  c #2A6BCB",
"0  c #336CC2",
"q  c #386FC4",
"w  c #3D73C6",
"e  c #3E75C9",
"r  c #2269D3",
"t  c #2E71D5",
"y  c #3777D5",
"u  c #3877D5",
"i  c #3979D7",
"p  c #437ACD",
"a  c #4C7ECA",
"s  c #437CD1",
"d  c #497FD1",
"f  c #5584CC",
"g  c #5E8BCF",
"h  c #4F88DC",
"j  c #558AD8",
"k  c #5E8FD8",
"l  c #5E92DE",
"z  c #6692D4",
"x  c #6993D2",
"c  c #6F99D6",
"v  c #6F9BDE",
"b  c #779DD6",
"n  c #6597E0",
"m  c #77A3E4",
"M  c #7CA6E5",
"N  c #7FA8E5",
"B  c #82A4DA",
"V  c #87A8DB",
"C  c #8AABDD",
"Z  c #80A7E1",
"A  c #80A9E5",
"S  c #88ACE2",
"D  c #91B1E2",
"F  c #99B6E2",
"G  c #91B4E9",
"H  c #99BAEA",
"J  c #A2BCE3",
"K  c #A2BFEB",
"L  c #A4C1EC",
"P  c #ABC5EB",
"I  c #B6CBEC",
"U  c #BBCEEB",
"Y  c #BED0ED",
"T  c #B6CDF0",
"R  c #B8CFF1",
"E  c #BCD2F2",
"W  c #C3D4ED",
"Q  c #C3D6F3",
"!  c #C6D8F2",
"~  c #CDDBF1",
"^  c #CFDDF2",
"/  c #C9DAF4",
"(  c #CADBF4",
")  c #C9DAF2",
"_  c #D2DFF3",
"`  c #D6E2F3",
"'  c #D3E0F4",
"]  c #D5E1F4",
"[  c #D8E3F3",
"{  c #D8E4F5",
"}  c #DAE4F4",
"|  c #DBE6F7",
" . c #E1E9F6",
".. c #E1EAF8",
"X. c #E2EBF9",
"o. c #E5ECF8",
"O. c #E6EDF8",
"+. c #E4EDFA",
"@. c #E5EDFA",
"#. c #E8EFFA",
"$. c #EAF0F9",
"%. c #E9F0FA",
"&. c #EEF3FA",
"*. c #EEF3FB",
"=. c #F0F4FB",
"-. c #F1F5FB",
";. c #F3F7FC",
":. c #F3F7FD",
">. c #F4F7FC",
",. c #F4F7FD",
"<. c #F5F8FD",
"1. c #F6F9FC",
"2. c #F7F9FD",
"3. c #F8FAFD",
"4. c #F9FBFD",
"5. c #F9FBFE",
"6. c #FBFCFE",
"7. c #FDFEFE",
"8. c #FDFEFF",
"9. c #FEFEFF",
"0. c white",
/* pixels */
"                                                      ; ; ; ; ; ; ; ; ; ;                                                       ",
"                                            ; ; ; ; ; ; ; ; ; ; ; ; ; ; ; ; ; ; ; ;                                             ",
"                                        ; ; ; ; ; ; ; ; ; ; ; ; ; ; ; ; ; ; ; ; ; ; ; ;                                         ",
"                                  ; ; ; ; ; ; ; ; ; ; ; ; ; ; ; ; ; ; ; ; ; ; ; ; ; ; ; ; ; ;                                   ",
"                                ; ; ; ; ; ; ; ; ; ; ; ; ; ; ; ; ; ; ; ; ; ; ; ; ; ; ; ; ; ; ; ;                                 ",
"                            ; ; ; ; ; ; ; ; ; ; ; ; ; ; ; ; ; ; ; ; ; ; ; ; ; ; ; ; ; ; ; ; ; ; ; ;                             ",
"                          ; ; ; ; ; ; ; ; ; ; ; ; ; ; ; ; ; ; ; ; ; ; ; ; ; ; ; ; ; ; ; ; ; ; ; ; ; ;                           ",
"                      ; ; ; ; ; ; ; ; ; ; ; ; ; ; ; ; ; ; ; ; ; ; ; ; ; ; ; ; ; ; ; ; ; ; ; ; ; ; ; ; = =                       ",
"                    ; ; ; ; ; ; ; ; ; ; ; ; ; ; ; ; ; ; ; ; ; ; ; ; ; ; ; ; ; ; ; ; ; ; ; ; ; ; ; ; = * * *                     ",
"                  ; ; ; ; ; ; ; n 4 ; ; ; ; ; ; ; ; ; ; ; ; ; ; ; ; ; ; ; ; ; ; ; ; ; ; ; ; ; ; ; = * * * * *                   ",
"                ; ; ; ; ; ; ; ; T <.A : ; ; ; ; ; ; ; ; ; ; ; ; ; ; ; ; ; ; ; ; ; ; ; ; ; ; ; ; = * * * * * * O                 ",
"              ; ; ; ; ; ; ; ; ; T 0.0.X.l ; ; ; ; ; ; ; ; ; ; ; ; ; ; ; ; ; ; ; ; ; ; ; ; ; ; = * * * * * * O O O               ",
"              ; ; ; ; ; ; ; ; ; T 0.0.0.0.E t ; ; ; ; ; ; ; ; ; ; ; ; ; ; ; ; ; ; ; ; ; ; ; = * * * * * * O O O O               ",
"            ; ; ; ; ; ; ; ; ; ; T 0.0.0.0.0.0.L 3 ; ; ; ; ; ; ; ; ; ; ; ; ; ; ; ; ; ; ; ; = * * * * * * O O O O O O             ",
"          ; ; ; ; ; ; ; ; ; ; ; T 0.0.0.0.0.0.0.N ; ; ; ; ; ; ; ; ; ; ; ; ; ; ; ; ; ; ; = * * * * * * O O O O O O O X           ",
"          ; ; ; ; ; ; ; ; ; ; ; R 0.0.0.0.0.0.0.N ; ; ; ; ; ; ; ; ; ; ; ; ; ; ; ; ; ; = * * * * * * O O O O O O O X X           ",
"        ; ; ; ; ; ; ; ; ; ; ; ; E 0.0.0.0.0.0.0.N ; ; r T r ; ; ; ; ; ; ; ; ; ; ; ; = * * * * * * O O O O O O O X X X .         ",
"      ; ; ; ; ; ; ; ; ; ; ; ; ; E 0.0.0.0.0.0.0.N ; ; r 0.5.G > ; ; ; ; ; ; ; ; ; = * * * * * * O O O O O O O X X X . .         ",
"      ; ; ; ; ; ; ; ; ; ; ; ; ; E 0.0.0.0.0.0.0.N ; ; r 0.0.0.@.n ; ; ; ; ; ; ; = * * * * * * * O O O O O O X X X . . . .       ",
"      ; ; ; ; ; ; ; ; ; ; ; ; ; E 0.0.0.0.0.0.0.N ; ; r 0.0.0.0.0./ i ; ; ; ; = * * * * * * O O O O O O O X X X . . . . .       ",
"    ; ; ; ; ; ; ; ; ; ; ; ; ; ; E 0.0.0.0.0.0.0.N ; ; r 0.0.0.0.0.0.0.L 2 ; = * * * * * * O O O O O O O X X X . . . . . . .     ",
"    ; ; ; ; ; ; ; ; ; ; ; ; ; ; E 0.0.0.0.0.0.0.M ; ; r 0.0.0.0.0.0.0.0.>.A - * * * * * O O O O O O O X X X . . . . . . . .     ",
"  ; ; ; ; ; ; ; ; ; ; ; ; ; ; ; E 0.0.0.0.0.0.0.M ; ; r 0.0.0.0.0.0.0.0.0.0.{ j * * * O O O O O O O X X X . . . . . . . . . X   ",
"  ; ; ; ; ; ; ; ; ; ; ; ; ; ; ; E 0.0.0.0.0.0.0.M ; ; r 0.0.0.0.0.0.0.0.0.0.0.0.Y 9 O O O O O O O X X X . . . . . . . . . . .   ",
"  ; ; ; ; ; ; ; ; ; ; ; ; ; ; ; E 0.0.0.0.0.0.0.M ; ; r 0.0.0.0.0.0.0.0.0.0.0.0.0.6.F < O O O O X X X . . . . . . . . . . . .   ",
"  ; ; ; ; ; ; ; ; ; ; ; ; ; ; ; E 0.0.0.0.0.0.0.M ; ; 4 :.0.0.0.0.0.0.0.0.0.0.0.0.0.0.%.z O O X X X . . . . . . . . . . . . .   ",
"; ; ; ; ; ; ; ; ; ; ; ; ; ; ; ; E 0.0.0.0.0.0.0.M ; ; ; 4 H 0.0.0.0.0.0.0.0.0.0.0.0.0.0.0.^ e X X . . . . . . . . . . . . . .   ",
"; ; ; ; ; ; ; ; ; ; ; ; ; ; ; ; E 0.0.0.0.0.0.0.P > ; ; ; ; y / 0.0.0.0.0.0.0.0.0.0.0.0.0.0.0.V . . . . . . . . . . . . . . . . ",
"; ; ; ; ; ; ; ; ; ; ; ; ; ; ; ; E 0.0.0.0.0.0.0.0.@.l ; ; ; = = j X.0.0.0.0.0.0.0.0.0.0.0.0.0.U . . . . . . . . . . . . . . . . ",
"; ; ; ; ; ; ; ; ; ; ; ; ; ; ; ; E 0.0.0.0.0.0.0.0.0.0./ u = * * * - Z <.0.0.0.0.0.0.0.0.0.0.0.U . . . . . . . . . . . . . . . . ",
"; ; ; ; ; ; ; ; ; ; ; ; ; ; ; ; Q 0.0.0.0.0.0.0.0.0.0.0.0.K 1 * * * * 8 P 0.0.0.0.0.0.0.0.0.0.U . . . . . . . . . . . . . . . . ",
"; ; ; ; ; ; ; ; ; ; ; ; ; ; ; ; Q 0.0.0.0.0.0.0.0.0.0.0.0.0.:.Z = * O O O p _ 0.0.0.0.0.0.0.0.U . . . . . . . . . . . . . . . . ",
"; ; ; ; ; ; ; ; ; ; ; ; ; ; ; ; h X.0.0.0.0.0.0.0.0.0.0.0.0.0.0.{ d O O O O + P 0.0.0.0.0.0.0.U . . . . . . . . . . . . . . . . ",
"; ; ; ; ; ; ; ; ; ; ; ; ; ; ; ; ; > m :.0.0.0.0.0.0.0.0.0.0.0.0.0.0.U 7 O O O C 0.0.0.0.0.0.0.U . . . . . . . . . . . . . . . . ",
"; ; ; ; ; ; ; ; ; ; ; ; ; ; ; ; ; ; ; 4 P 0.0.0.0.0.0.0.0.0.0.0.0.0.0.5.+ O X C 0.0.0.0.0.0.0.U . . . . . . . . . . . . . . . . ",
"; ; ; ; ; ; ; ; ; ; ; ; ; ; ; ; ; ; ; ; ; y / 0.0.0.0.0.0.0.0.0.0.0.0.0.+ X X V 0.0.0.0.0.0.0.Y . . . . . . . . . . . . . . . . ",
"; ; ; ; ; ; ; ; ; ; ; ; ; ; ; ; L l ; ; ; ; = l #.0.0.0.0.0.0.0.0.0.0.0.+ X X V 0.0.0.0.0.0.0.Y . . . . . . . . . . . . . . . . ",
"  ; ; ; ; ; ; ; ; ; ; ; ; ; ; ; Q 0.E t ; = * * , S 5.0.0.0.0.0.0.0.0.0.+ X . V 0.0.0.0.0.0.0.Y . . . . . . . . . . . . . . .   ",
"  ; ; ; ; ; ; ; ; ; ; ; ; ; ; ; ! 0.0.0.K 1 * * * * 9 I 0.0.0.0.0.0.0.0.@ . . V 0.0.0.0.0.0.0.W . . . . . . . . . . . . . . .   ",
"  ; ; ; ; ; ; ; ; ; ; ; ; ; ; ; ! 0.0.0.0.*.v = * * O O p ] 0.0.0.0.~ e . . . V 0.0.0.0.0.0.0.W . . . . . . . . . . . . . . .   ",
"  ; ; ; ; ; ; ; ; ; ; ; ; ; ; ; ! 0.0.0.0.0.0.' s O O O O + c -.@.z X . . . . V 0.0.0.0.0.0.0.W . . . . . . . . . . . . . . .   ",
"  ; ; ; ; ; ; ; ; ; ; ; ; ; ; ; ! 0.0.0.0.0.0.0.0.I 8 O O O O % # X . . . o B <.0.0.0.0.0.0.0.W . . . . . . . . . . . . . . .   ",
"    ; ; ; ; ; ; ; ; ; ; ; ; ; ; ! 0.0.0.0.0.0.0.0.0.5.D # O X X X . . X g @.0.0.0.0.0.0.0.0.0.W . . . . . . . . . . . . . .     ",
"    ; ; ; ; ; ; ; ; ; ; ; ; ; = ! 0.0.0.0.0.0.0.0.0.0.0.@.z X X . . q W 0.0.0.0.0.0.0.0.0.0.0.W . . . . . . . . . . . . . .     ",
"      ; ; ; ; ; ; ; ; ; ; ; = * ! 0.0.0.0.0.0.0.0.0.0.0.0.0./ w & J 0.0.0.0.0.0.0.0.0.0.0.0.0.W . . . . . . . . . . . . .       ",
"      ; ; ; ; ; ; ; ; ; ; = * * P 0.0.0.0.0.0.0.0.0.0.0.0.0.0.0.5.0.0.0.0.0.0.0.0.0.0.0.0.0.0.I . . . . . . . . . . . . .       ",
"      ; ; ; ; ; ; ; ; ; = * * * * k %.0.0.0.0.0.0.0.0.0.0.0.0.0.0.0.0.0.0.0.0.0.0.0.0.0.0.>.B o . . . . . . . . . . . .         ",
"        ; ; ; ; ; ; ; = * * * * * * , S 5.0.0.0.0.0.0.0.0.0.0.0.0.0.0.0.0.0.0.0.0.0.0.0.J & . . . . . . . . . . . . . .         ",
"          ; ; ; ; ; = * * * * * * O O O 5 I 0.0.0.0.0.0.0.0.0.0.0.0.0.0.0.0.0.0.0.0.U 6 . . . . . . . . . . . . . . .           ",
"          ; ; ; ; = * * * * * * O O O O O O p ` 0.0.0.0.0.0.0.0.0.0.0.0.0.0.0.0.{ f . . . . . . . . . . . . . . . . .           ",
"            ; ; = * * * * * * O O O O O O O X o c -.0.0.0.0.0.0.0.0.0.0.0.0.*.b o . . . . . . . . . . . . . . . . .             ",
"              = * * * * * * O O O O O O O X X X . & F 0.0.0.0.0.0.0.0.0.6.F $ . . . . . . . . . . . . . . . . . .               ",
"              = * * * * * O O O O O O O X X X . . . . 0 W 0.0.0.0.0.0.U 6 . . . . . . . . . . . . . . . . . . . .               ",
"                * * * * O O O O O O O X X X . . . . . . . f  .0.0.[ a . . . . . . . . . . . . . . . . . . . . .                 ",
"                  * * O O O O O O O X X X . . . . . . . . . @ V x X . . . . . . . . . . . . . . . . . . . . .                   ",
"                    * O O O O O O X X X . . . . . . . . . . . . . . . . . . . . . . . . . . . . . . . . . .                     ",
"                      O O O O O X X X . . . . . . . . . . . . . . . . . . . . . . . . . . . . . . . . . .                       ",
"                          O O X X X . . . . . . . . . . . . . . . . . . . . . . . . . . . . . . . . .                           ",
"                            X X X . . . . . . . . . . . . . . . . . . . . . . . . . . . . . . . . .                             ",
"                                . . . . . . . . . . . . . . . . . . . . . . . . . . . . . . . .                                 ",
"                                    . . . . . . . . . . . . . . . . . . . . . . . . . . . .                                     ",
"                                        . . . . . . . . . . . . . . . . . . . . . . . .                                         ",
"                                            X . . . . . . . . . . . . . . . . . . .                                             ",
"                                                      . . . . . . . . . .                                                       "
};
