/* XPM */
static char *_396d63dec9f4782fdafe32e4d26da61CC9IDQ0HVEWz0kMF[] = {
/* columns rows colors chars-per-pixel */
"32 32 136 2 ",
"   c None",
".  c #0046B3",
"X  c #0047B3",
"o  c #0046B4",
"O  c #0047B6",
"+  c #0048B2",
"@  c #0048B3",
"#  c #0248B4",
"$  c #0349B4",
"%  c #0048B6",
"&  c #0149B6",
"*  c #044BB7",
"=  c #0B4FB6",
"-  c #0049B8",
";  c #004ABB",
":  c #044CB9",
">  c #004ABC",
",  c #004BBD",
"<  c #024BBC",
"1  c #004CBF",
"2  c #0D50B7",
"3  c #0851BF",
"4  c #1B5ABB",
"5  c #215FBD",
"6  c #2562BE",
"7  c #004DC2",
"8  c #004EC3",
"9  c #024EC2",
"0  c #004EC4",
"q  c #004FC6",
"w  c #0650C1",
"e  c #0250C6",
"r  c #0051C9",
"t  c #0051CB",
"y  c #0052CB",
"u  c #0051CD",
"i  c #0052CC",
"p  c #0053CC",
"a  c #0052CD",
"s  c #0656CD",
"d  c #0857CE",
"f  c #0E5BCC",
"g  c #0E5BCF",
"h  c #1A5CC2",
"j  c #105DCF",
"k  c #115ECF",
"l  c #1A5FC8",
"z  c #1F64CB",
"x  c #1960CC",
"c  c #1661D0",
"v  c #1F67D2",
"b  c #3D73C5",
"n  c #3570C9",
"m  c #3772CB",
"M  c #3873CD",
"N  c #2A6ED4",
"B  c #2F72D5",
"V  c #3B76D0",
"C  c #3C7BD7",
"Z  c #3D7BD8",
"A  c #3E7CD8",
"S  c #3F7DD9",
"D  c #4277C7",
"F  c #4478C7",
"G  c #4579C8",
"H  c #457ACA",
"J  c #4E81CE",
"K  c #5484CE",
"L  c #5E8BCF",
"P  c #4D83D6",
"I  c #4C86DB",
"U  c #4F88DC",
"Y  c #5E8CD2",
"T  c #5F8DD2",
"R  c #6691D1",
"E  c #6695DC",
"W  c #6697DF",
"Q  c #6F99DA",
"!  c #7199D6",
"~  c #7BA2DE",
"^  c #77A3E4",
"/  c #79A4E4",
"(  c #80A3D9",
")  c #81A4D9",
"_  c #88A9DC",
"`  c #99B7E5",
"'  c #99B8E7",
"]  c #91B4E9",
"[  c #A2BDE7",
"{  c #A2C0EC",
"}  c #AFC9EF",
"|  c #B3C8E8",
" . c #B3CBEE",
".. c #BED0EC",
"X. c #BBD1F1",
"o. c #BFD3F1",
"O. c #C2D3EE",
"+. c #C6D6EF",
"@. c #CBD9EF",
"#. c #C8D8F1",
"$. c #C9D9F1",
"%. c #CCDCF3",
"&. c #D0DDF1",
"*. c #D9E5F7",
"=. c #DCE6F5",
"-. c #DEE7F5",
";. c #DDE7F7",
":. c #DFE8F5",
">. c #DEE8F7",
",. c #DCE7F8",
"<. c #DDE8F8",
"1. c #DEE9F8",
"2. c #DFE9F9",
"3. c #E0E9F6",
"4. c #E1E9F6",
"5. c #E2EAF6",
"6. c #E4ECF7",
"7. c #E3EBF8",
"8. c #E2EBF9",
"9. c #E3ECF9",
"0. c #E7EEF8",
"q. c #E6EEF9",
"w. c #E6EEFA",
"e. c #EFF4FC",
"r. c #F2F6FC",
"t. c #F3F6FC",
"y. c #F3F7FC",
"u. c #F4F7FC",
"i. c #F5F8FC",
"p. c #F8FAFD",
"a. c #FAFCFE",
"s. c #FCFDFE",
"d. c #FDFEFE",
"f. c #FDFEFF",
"g. c #FEFEFF",
"h. c white",
/* pixels */
"                        i i i i i i i i                         ",
"                  i i i i i i i i i i i i i i                   ",
"              i i i i i i i i i i i i i i i i i y               ",
"            i i i i i i i i i i i i i i i i i i y y             ",
"          i i i v i i i i i i i i i i i i i i y y q 7           ",
"        i i i i *.{ c i i i i i i i i i i i y y q q 7 1         ",
"      i i i i i ,.h.e.^ s i i i i i i i i y y q q 7 1 > >       ",
"    i i i i i i ,.h.h.h.S i i i i i i i y y q q 7 1 > - - O     ",
"    i i i i i i ,.h.h.h.S j X.N i i i y y q q 7 1 > - - & X     ",
"  i i i i i i i <.h.h.h.S j h.a.] f y y q q 7 1 > - - & X X X   ",
"  i i i i i i i <.h.h.h.S j h.h.h.q.E e q 7 1 > - - & X X X X   ",
"  i i i i i i i <.h.h.h.S j h.h.h.h.h.%.V 1 > - - & X X X X X   ",
"i i i i i i i i <.h.h.h.Z j h.h.h.h.h.h.h.[ h - & X X X X X X + ",
"i i i i i i i i <.h.h.h.I i B o.h.h.h.h.h.h.y.! X X X X X X X X ",
"i i i i i i i i <.h.h.h.a.] f q P :.h.h.h.h.h.;.X X X X X X X X ",
"i i i i i i i i <.h.h.h.h.h.q.E 7 w Q y.h.h.h.;.X X X X X X X X ",
"i i i i i i i i U <.h.h.h.h.h.h.$.n - J h.h.h.;.X X X X X X X X ",
"i i i i i i i i i d / y.h.h.h.h.h.h.: G h.h.h.;.X X X X X X X X ",
"i i i i i i i i } C y x ' h.h.h.h.h.* G h.h.h.:.X X X X X X X X ",
"i i i i i i i i 7.h. .z 7 M $.h.h.O.& F h.h.h.3.X X X X X X X O ",
"  i i i i i i y 7.h.h.u.~ 3 > T K X & ) h.h.h.3.X X X X X X X   ",
"  i i i i i y y 9.h.h.h.h.7.T & X D &.h.h.h.h.3.X X X X X X X   ",
"  i i i i y y q ;.h.h.h.h.h.h...| h.h.h.h.h.h.:.X X X X X X X   ",
"    i i y y q q l ` h.h.h.h.h.h.h.h.h.h.h.h.| 5 X X X X X X     ",
"    y y y q q 7 1 > n +.h.h.h.h.h.h.h.h.@.b X X X X X X X +     ",
"      y q q 7 1 > - - & L q.h.h.h.h.6.R & X X X X X X X X       ",
"        q 7 1 > - - & X X = ( p.i._ 2 X X X X X X X X X         ",
"          1 > - - & X X X X X 6 4 X X X X X X X X X X           ",
"            > - & X X X X X X X X X X X X X X X X X             ",
"              O X X X X X X X X X X X X X X X X X               ",
"                  X X X X X X X X X X X X X +                   ",
"                        O X X X X X X X                         "
};
